<?xml version="1.0" encoding="UTF-8"?>
<svg xmlns="http://www.w3.org/2000/svg" xmlns:xlink="http://www.w3.org/1999/xlink" width="40pt" height="40pt" viewBox="0 0 40 40" version="1.1">
<g id="surface1">
<path style=" stroke:none;fill-rule:nonzero;fill:rgb(100%,74.901961%,40%);fill-opacity:1;" d="M 15.1875 6.066406 C 14.449219 6.125 13.230469 6.292969 12.480469 6.441406 C 11.277344 6.667969 11.066406 6.757812 10.632812 7.238281 C 9.835938 8.09375 8.753906 10.257812 8.996094 10.5 C 9.023438 10.53125 9.867188 10.363281 10.84375 10.125 C 14.402344 9.253906 15.382812 9.148438 18.941406 9.148438 C 22.5625 9.148438 23.632812 9.269531 27.179688 10.167969 C 28.589844 10.53125 29.085938 10.605469 29.085938 10.46875 C 29.085938 10.035156 28.425781 8.636719 27.792969 7.75 C 27.085938 6.757812 27.027344 6.726562 25.179688 6.367188 C 22.984375 5.929688 18.238281 5.796875 15.1875 6.066406 Z M 15.1875 6.066406 "/>
<path style=" stroke:none;fill-rule:nonzero;fill:rgb(100%,74.901961%,40%);fill-opacity:1;" d="M 8.5 7.164062 C 7.222656 7.613281 6.753906 7.871094 5.972656 8.53125 C 4.816406 9.539062 4.394531 10.890625 4.757812 12.542969 C 4.875 13.113281 5.460938 14.480469 6.273438 16.105469 C 7.523438 18.585938 8.046875 19.9375 8.273438 21.246094 L 8.347656 21.800781 L 9.292969 21.5 C 9.804688 21.351562 10.375 21.261719 10.558594 21.304688 C 10.886719 21.378906 10.902344 21.335938 10.902344 20.582031 C 10.902344 19.246094 10.511719 18.121094 9.085938 15.292969 C 7.941406 13.023438 7.71875 12.4375 7.640625 11.671875 C 7.535156 10.453125 7.867188 9.34375 8.738281 8.050781 C 9.582031 6.789062 9.582031 6.804688 9.519531 6.804688 C 9.488281 6.804688 9.039062 6.96875 8.5 7.164062 Z M 28.546875 6.921875 C 28.574219 6.984375 28.921875 7.496094 29.296875 8.050781 C 30.167969 9.34375 30.5 10.453125 30.394531 11.671875 C 30.320312 12.421875 30.078125 13.039062 28.875 15.445312 C 27.433594 18.316406 27.132812 19.230469 27.132812 20.628906 C 27.132812 21.363281 27.132812 21.363281 27.554688 21.289062 C 27.792969 21.246094 28.351562 21.335938 28.832031 21.5 L 29.6875 21.785156 L 29.777344 21.246094 C 29.988281 19.9375 30.515625 18.570312 31.761719 16.089844 C 33.203125 13.25 33.566406 12.046875 33.371094 10.832031 C 33.128906 9.417969 32.183594 8.320312 30.515625 7.554688 C 29.566406 7.117188 28.441406 6.757812 28.546875 6.921875 Z M 17.859375 16.179688 C 17.515625 16.375 16.945312 16.765625 16.597656 17.050781 C 15.90625 17.609375 14 19.832031 13.097656 21.140625 L 12.511719 21.996094 L 13.050781 22.445312 C 13.714844 22.988281 14.796875 24.625 15.246094 25.769531 C 15.441406 26.234375 15.679688 27.105469 15.785156 27.722656 C 15.890625 28.324219 15.996094 28.730469 15.996094 28.625 C 16.011719 28.351562 16.253906 28.398438 17.09375 28.878906 L 17.859375 29.316406 L 17.050781 29.78125 C 16.597656 30.035156 16.164062 30.214844 16.074219 30.1875 C 15.96875 30.140625 15.878906 30.425781 15.816406 30.921875 C 15.773438 31.359375 15.5625 32.09375 15.335938 32.5625 C 15.109375 33.042969 14.960938 33.449219 14.976562 33.460938 C 15.277344 33.71875 17.15625 34.0625 18.613281 34.125 C 20.070312 34.183594 20.609375 34.140625 21.8125 33.851562 C 22.757812 33.644531 23.226562 33.460938 23.164062 33.355469 C 22.640625 32.140625 22.324219 31.3125 22.324219 31.074219 C 22.324219 30.59375 22.144531 30.097656 22.023438 30.171875 C 21.902344 30.246094 20.582031 29.554688 20.445312 29.359375 C 20.386719 29.238281 21.8125 28.382812 22.082031 28.367188 C 22.160156 28.367188 22.308594 27.960938 22.414062 27.464844 C 22.820312 25.496094 23.796875 23.621094 25.015625 22.539062 L 25.644531 21.964844 L 24.699219 20.660156 C 24.1875 19.9375 23.121094 18.691406 22.324219 17.894531 C 20.28125 15.820312 19.214844 15.414062 17.859375 16.179688 Z M 17.859375 16.179688 "/>
<path style=" stroke:none;fill-rule:nonzero;fill:rgb(100%,74.901961%,40%);fill-opacity:1;" d="M 9.355469 22.792969 L 8.933594 22.972656 L 9.625 23.46875 C 9.984375 23.722656 10.601562 24.386719 10.976562 24.910156 C 12.601562 27.164062 13.21875 30.214844 12.585938 32.667969 L 12.316406 33.671875 L 12.707031 33.523438 C 13.425781 33.253906 14.058594 32.484375 14.359375 31.480469 C 15.484375 27.855469 13.023438 22.523438 10.273438 22.597656 C 10 22.597656 9.59375 22.6875 9.355469 22.792969 Z M 26.710938 22.898438 C 25.464844 23.515625 24.246094 25.347656 23.738281 27.375 C 23.570312 28.050781 23.511719 28.789062 23.554688 29.796875 C 23.632812 31.628906 24.140625 32.832031 25.105469 33.355469 C 25.433594 33.539062 25.71875 33.671875 25.734375 33.644531 C 25.765625 33.613281 25.691406 33.207031 25.554688 32.710938 C 24.804688 29.796875 25.855469 26.070312 28.050781 23.90625 L 29.054688 22.898438 L 28.605469 22.746094 C 27.914062 22.507812 27.433594 22.550781 26.710938 22.898438 Z M 6.019531 24.25 C 5.597656 24.582031 4.890625 25.902344 4.890625 26.355469 C 4.890625 26.488281 5.371094 26.894531 6.019531 27.285156 C 7.144531 27.976562 7.144531 27.992188 7.144531 27.601562 C 7.144531 27.03125 6.664062 24.175781 6.542969 24.039062 C 6.5 23.980469 6.257812 24.070312 6.019531 24.25 Z M 6.019531 24.25 "/>
<path style=" stroke:none;fill-rule:nonzero;fill:rgb(100%,74.901961%,40%);fill-opacity:1;" d="M 7.957031 24.324219 C 8.003906 24.566406 8.152344 25.40625 8.273438 26.1875 C 8.40625 26.96875 8.558594 27.648438 8.601562 27.691406 C 8.679688 27.765625 10.136719 26.1875 10.152344 26.007812 C 10.167969 25.738281 9.097656 24.609375 8.511719 24.265625 L 7.867188 23.890625 Z M 29.433594 24.371094 C 29.085938 24.609375 28.636719 25.0625 28.410156 25.363281 C 28.035156 25.84375 28.003906 25.933594 28.183594 26.265625 C 28.394531 26.671875 29.507812 27.78125 29.582031 27.675781 C 29.703125 27.542969 30.230469 23.933594 30.136719 23.933594 C 30.078125 23.933594 29.761719 24.128906 29.433594 24.371094 Z M 31.234375 25.84375 C 31.070312 26.910156 30.949219 27.8125 30.996094 27.871094 C 31.039062 27.960938 32.917969 26.867188 33.277344 26.550781 C 33.292969 26.535156 33.203125 26.160156 33.070312 25.738281 C 32.828125 25.015625 32 23.933594 31.6875 23.933594 C 31.597656 23.933594 31.402344 24.792969 31.234375 25.84375 Z M 10.078125 28.113281 C 9.65625 28.578125 9.339844 29.074219 9.371094 29.195312 C 9.386719 29.316406 9.882812 29.707031 10.46875 30.050781 L 11.503906 30.699219 L 11.503906 30.125 C 11.503906 29.554688 11.128906 27.796875 10.933594 27.464844 C 10.859375 27.316406 10.601562 27.511719 10.078125 28.113281 Z M 27.148438 27.660156 C 26.90625 28.277344 26.695312 29.359375 26.683594 30.007812 C 26.683594 30.667969 26.710938 30.667969 27.960938 29.871094 C 28.410156 29.585938 28.785156 29.238281 28.785156 29.121094 C 28.785156 29 28.457031 28.535156 28.050781 28.082031 L 27.3125 27.269531 Z M 4.800781 28.878906 C 4.921875 29.917969 5.296875 31.296875 5.460938 31.285156 C 5.703125 31.253906 6.980469 29.628906 6.90625 29.464844 C 6.859375 29.359375 6.347656 28.984375 5.761719 28.625 L 4.695312 27.976562 Z M 32.273438 28.699219 C 31.6875 29.074219 31.191406 29.449219 31.191406 29.523438 C 31.191406 29.691406 32.558594 31.296875 32.691406 31.296875 C 32.886719 31.296875 33.566406 28.21875 33.414062 28.050781 C 33.382812 28.039062 32.875 28.324219 32.273438 28.699219 Z M 9.097656 30.96875 C 9.113281 31.402344 9.640625 34.605469 9.730469 34.679688 C 10.015625 34.980469 11.355469 33.058594 11.355469 32.335938 C 11.355469 32.199219 10.871094 31.792969 10.226562 31.402344 C 9.324219 30.847656 9.097656 30.757812 9.097656 30.96875 Z M 6.859375 31.703125 C 6.441406 32.183594 6.09375 32.636719 6.09375 32.695312 C 6.09375 32.769531 6.5 33.222656 6.980469 33.71875 C 7.972656 34.695312 8.421875 34.875 8.289062 34.199219 C 8.242188 33.957031 8.09375 33.132812 7.972656 32.351562 C 7.835938 31.570312 7.703125 30.90625 7.671875 30.878906 C 7.65625 30.847656 7.28125 31.222656 6.859375 31.703125 Z M 27.777344 31.480469 C 26.726562 32.15625 26.667969 32.335938 27.117188 33.328125 C 27.359375 33.851562 28.289062 34.859375 28.425781 34.726562 C 28.441406 34.695312 28.574219 34.035156 28.695312 33.253906 C 28.832031 32.472656 28.980469 31.597656 29.027344 31.328125 C 29.132812 30.699219 28.953125 30.710938 27.777344 31.480469 Z M 30.378906 31.101562 C 30.199219 31.75 29.824219 34.484375 29.898438 34.558594 C 30.046875 34.726562 31.191406 33.851562 31.640625 33.238281 L 32.078125 32.621094 L 31.3125 31.734375 C 30.890625 31.238281 30.527344 30.847656 30.5 30.847656 C 30.484375 30.847656 30.425781 30.96875 30.378906 31.101562 Z M 30.378906 31.101562 "/>
</g>
</svg>
