<?xml version="1.0" encoding="UTF-8"?>
<svg xmlns="http://www.w3.org/2000/svg" xmlns:xlink="http://www.w3.org/1999/xlink" width="39pt" height="35pt" viewBox="0 0 39 35" version="1.1">
<g id="surface1">
<path style=" stroke:none;fill-rule:nonzero;fill="#ffa400";fill-opacity:1;" d="M 14.464844 2.445312 C 13.683594 2.511719 12.386719 2.691406 11.589844 2.851562 C 10.308594 3.09375 10.085938 3.191406 9.621094 3.710938 C 8.773438 4.632812 7.625 6.96875 7.878906 7.226562 C 7.910156 7.257812 8.808594 7.082031 9.847656 6.820312 C 13.632812 5.882812 14.671875 5.769531 18.460938 5.769531 C 22.3125 5.769531 23.449219 5.898438 27.21875 6.871094 C 28.722656 7.257812 29.25 7.339844 29.25 7.195312 C 29.25 6.722656 28.546875 5.21875 27.875 4.261719 C 27.125 3.191406 27.058594 3.160156 25.09375 2.769531 C 22.761719 2.300781 17.710938 2.15625 14.464844 2.445312 Z M 14.464844 2.445312 "/>
<path style=" stroke:none;fill-rule:nonzero;fill:rgb(0%,0%,0%);fill-opacity:1;" d="M 7.351562 3.628906 C 5.992188 4.117188 5.5 4.390625 4.667969 5.105469 C 3.4375 6.191406 2.988281 7.648438 3.371094 9.429688 C 3.5 10.046875 4.125 11.519531 4.988281 13.269531 C 6.3125 15.945312 6.871094 17.402344 7.113281 18.8125 L 7.191406 19.410156 L 8.199219 19.089844 C 8.742188 18.925781 9.351562 18.828125 9.542969 18.878906 C 9.894531 18.957031 9.910156 18.910156 9.910156 18.097656 C 9.910156 16.65625 9.496094 15.441406 7.976562 12.394531 C 6.761719 9.949219 6.519531 9.316406 6.441406 8.492188 C 6.328125 7.179688 6.679688 5.980469 7.609375 4.585938 C 8.503906 3.222656 8.503906 3.242188 8.4375 3.242188 C 8.40625 3.242188 7.929688 3.417969 7.351562 3.628906 Z M 7.351562 3.628906 "/>
<path style=" stroke:none;fill-rule:nonzero;fill:rgb(0%,0%,0%);fill-opacity:1;" d="M 28.675781 3.371094 C 28.707031 3.433594 29.074219 3.984375 29.472656 4.585938 C 30.402344 5.980469 30.753906 7.179688 30.640625 8.492188 C 30.5625 9.300781 30.304688 9.964844 29.027344 12.558594 C 27.492188 15.652344 27.171875 16.640625 27.171875 18.148438 C 27.171875 18.941406 27.171875 18.941406 27.621094 18.859375 C 27.875 18.8125 28.46875 18.910156 28.976562 19.089844 L 29.890625 19.394531 L 29.984375 18.8125 C 30.210938 17.402344 30.769531 15.929688 32.09375 13.253906 C 33.628906 10.191406 34.011719 8.894531 33.804688 7.582031 C 33.550781 6.058594 32.542969 4.878906 30.769531 4.050781 C 29.761719 3.582031 28.5625 3.191406 28.675781 3.371094 Z M 28.675781 3.371094 "/>
<path style=" stroke:none;fill-rule:nonzero;fill:rgb(0%,0%,0%);fill-opacity:1;" d="M 17.308594 13.351562 C 16.941406 13.5625 16.335938 13.984375 15.96875 14.292969 C 15.230469 14.890625 13.203125 17.289062 12.242188 18.699219 L 11.621094 19.621094 L 12.195312 20.109375 C 12.898438 20.691406 14.050781 22.457031 14.527344 23.691406 C 14.738281 24.191406 14.992188 25.132812 15.105469 25.796875 C 15.214844 26.445312 15.328125 26.882812 15.328125 26.769531 C 15.34375 26.476562 15.601562 26.527344 16.496094 27.042969 L 17.308594 27.515625 L 16.445312 28.015625 C 15.96875 28.292969 15.503906 28.484375 15.40625 28.453125 C 15.296875 28.40625 15.199219 28.714844 15.136719 29.246094 C 15.089844 29.71875 14.863281 30.511719 14.625 31.015625 C 14.386719 31.53125 14.226562 31.96875 14.242188 31.984375 C 14.5625 32.261719 16.558594 32.632812 18.109375 32.699219 C 19.660156 32.765625 20.234375 32.714844 21.515625 32.40625 C 22.519531 32.179688 23.015625 31.984375 22.953125 31.871094 C 22.394531 30.558594 22.058594 29.667969 22.058594 29.410156 C 22.058594 28.890625 21.867188 28.355469 21.738281 28.4375 C 21.609375 28.519531 20.203125 27.773438 20.058594 27.5625 C 19.996094 27.433594 21.515625 26.507812 21.800781 26.492188 C 21.882812 26.492188 22.042969 26.054688 22.152344 25.519531 C 22.585938 23.398438 23.625 21.371094 24.917969 20.207031 L 25.589844 19.589844 L 24.582031 18.179688 C 24.039062 17.402344 22.90625 16.058594 22.058594 15.199219 C 19.882812 12.964844 18.75 12.527344 17.308594 13.351562 Z M 17.308594 13.351562 "/>
<path style=" stroke:none;fill-rule:nonzero;fill:rgb(0%,0%,0%);fill-opacity:1;" d="M 8.261719 20.480469 L 7.816406 20.675781 L 8.550781 21.210938 C 8.933594 21.484375 9.589844 22.199219 9.988281 22.765625 C 11.714844 25.195312 12.371094 28.484375 11.699219 31.128906 L 11.414062 32.214844 L 11.828125 32.050781 C 12.59375 31.757812 13.265625 30.933594 13.585938 29.847656 C 14.785156 25.941406 12.164062 20.191406 9.238281 20.269531 C 8.949219 20.269531 8.519531 20.367188 8.261719 20.480469 Z M 8.261719 20.480469 "/>
<path style=" stroke:none;fill-rule:nonzero;fill:rgb(0%,0%,0%);fill-opacity:1;" d="M 26.722656 20.59375 C 25.398438 21.257812 24.101562 23.234375 23.558594 25.421875 C 23.382812 26.152344 23.320312 26.945312 23.367188 28.03125 C 23.449219 30.007812 23.992188 31.304688 25.015625 31.871094 C 25.367188 32.066406 25.667969 32.214844 25.6875 32.179688 C 25.71875 32.148438 25.636719 31.710938 25.492188 31.175781 C 24.695312 28.03125 25.8125 24.015625 28.148438 21.679688 L 29.21875 20.59375 L 28.738281 20.433594 C 28.003906 20.171875 27.492188 20.222656 26.722656 20.59375 Z M 26.722656 20.59375 "/>
<path style=" stroke:none;fill-rule:nonzero;fill:rgb(0%,0%,0%);fill-opacity:1;" d="M 4.714844 22.054688 C 4.269531 22.410156 3.515625 23.835938 3.515625 24.320312 C 3.515625 24.46875 4.027344 24.90625 4.714844 25.328125 C 5.914062 26.070312 5.914062 26.089844 5.914062 25.667969 C 5.914062 25.050781 5.402344 21.972656 5.273438 21.828125 C 5.226562 21.761719 4.972656 21.859375 4.714844 22.054688 Z M 4.714844 22.054688 "/>
<path style=" stroke:none;fill-rule:nonzero;fill:rgb(0%,0%,0%);fill-opacity:1;" d="M 6.777344 22.132812 C 6.824219 22.394531 6.984375 23.300781 7.113281 24.144531 C 7.257812 24.984375 7.417969 25.714844 7.464844 25.765625 C 7.542969 25.84375 9.09375 24.144531 9.109375 23.949219 C 9.125 23.65625 7.992188 22.441406 7.367188 22.070312 L 6.679688 21.664062 Z M 6.777344 22.132812 "/>
<path style=" stroke:none;fill-rule:nonzero;fill:rgb(0%,0%,0%);fill-opacity:1;" d="M 29.617188 22.183594 C 29.25 22.441406 28.769531 22.929688 28.53125 23.253906 C 28.132812 23.769531 28.097656 23.867188 28.289062 24.222656 C 28.515625 24.660156 29.699219 25.859375 29.777344 25.746094 C 29.90625 25.601562 30.464844 21.714844 30.367188 21.714844 C 30.304688 21.714844 29.96875 21.921875 29.617188 22.183594 Z M 29.617188 22.183594 "/>
<path style=" stroke:none;fill-rule:nonzero;fill:rgb(0%,0%,0%);fill-opacity:1;" d="M 31.535156 23.769531 C 31.359375 24.921875 31.230469 25.894531 31.28125 25.957031 C 31.328125 26.054688 33.324219 24.871094 33.710938 24.53125 C 33.726562 24.515625 33.628906 24.109375 33.484375 23.65625 C 33.230469 22.878906 32.351562 21.714844 32.015625 21.714844 C 31.917969 21.714844 31.710938 22.636719 31.535156 23.769531 Z M 31.535156 23.769531 "/>
<path style=" stroke:none;fill-rule:nonzero;fill:rgb(0%,0%,0%);fill-opacity:1;" d="M 9.03125 26.21875 C 8.582031 26.71875 8.246094 27.253906 8.28125 27.382812 C 8.296875 27.515625 8.824219 27.933594 9.445312 28.308594 L 10.550781 29.003906 L 10.550781 28.390625 C 10.550781 27.773438 10.148438 25.878906 9.941406 25.519531 C 9.863281 25.359375 9.589844 25.570312 9.03125 26.21875 Z M 9.03125 26.21875 "/>
<path style=" stroke:none;fill-rule:nonzero;fill:rgb(0%,0%,0%);fill-opacity:1;" d="M 27.1875 25.730469 C 26.933594 26.394531 26.707031 27.5625 26.691406 28.257812 C 26.691406 28.972656 26.722656 28.972656 28.050781 28.113281 C 28.53125 27.804688 28.929688 27.433594 28.929688 27.304688 C 28.929688 27.171875 28.578125 26.671875 28.148438 26.183594 L 27.363281 25.308594 Z M 27.1875 25.730469 "/>
<path style=" stroke:none;fill-rule:nonzero;fill:rgb(0%,0%,0%);fill-opacity:1;" d="M 3.421875 27.042969 C 3.546875 28.160156 3.949219 29.652344 4.125 29.636719 C 4.378906 29.605469 5.738281 27.855469 5.65625 27.675781 C 5.609375 27.5625 5.066406 27.15625 4.445312 26.769531 L 3.308594 26.070312 Z M 3.421875 27.042969 "/>
<path style=" stroke:none;fill-rule:nonzero;fill:rgb(0%,0%,0%);fill-opacity:1;" d="M 32.636719 26.847656 C 32.015625 27.253906 31.488281 27.660156 31.488281 27.742188 C 31.488281 27.917969 32.941406 29.652344 33.085938 29.652344 C 33.292969 29.652344 34.011719 26.332031 33.851562 26.152344 C 33.820312 26.136719 33.277344 26.445312 32.636719 26.847656 Z M 32.636719 26.847656 "/>
<path style=" stroke:none;fill-rule:nonzero;fill:rgb(0%,0%,0%);fill-opacity:1;" d="M 7.992188 29.296875 C 8.007812 29.765625 8.566406 33.21875 8.664062 33.296875 C 8.96875 33.621094 10.390625 31.546875 10.390625 30.769531 C 10.390625 30.625 9.878906 30.1875 9.191406 29.765625 C 8.230469 29.167969 7.992188 29.070312 7.992188 29.296875 Z M 7.992188 29.296875 "/>
<path style=" stroke:none;fill-rule:nonzero;fill:rgb(0%,0%,0%);fill-opacity:1;" d="M 5.609375 30.089844 C 5.164062 30.609375 4.796875 31.09375 4.796875 31.160156 C 4.796875 31.242188 5.226562 31.726562 5.738281 32.261719 C 6.792969 33.316406 7.273438 33.507812 7.128906 32.78125 C 7.082031 32.519531 6.921875 31.628906 6.792969 30.785156 C 6.648438 29.945312 6.503906 29.230469 6.472656 29.199219 C 6.457031 29.167969 6.058594 29.570312 5.609375 30.089844 Z M 5.609375 30.089844 "/>
<path style=" stroke:none;fill-rule:nonzero;fill:rgb(0%,0%,0%);fill-opacity:1;" d="M 27.859375 29.847656 C 26.742188 30.578125 26.675781 30.769531 27.15625 31.839844 C 27.410156 32.40625 28.402344 33.492188 28.546875 33.347656 C 28.5625 33.316406 28.707031 32.601562 28.835938 31.757812 C 28.976562 30.917969 29.136719 29.976562 29.1875 29.683594 C 29.296875 29.003906 29.105469 29.019531 27.859375 29.847656 Z M 27.859375 29.847656 "/>
<path style=" stroke:none;fill-rule:nonzero;fill:rgb(0%,0%,0%);fill-opacity:1;" d="M 30.625 29.441406 C 30.433594 30.140625 30.03125 33.089844 30.113281 33.167969 C 30.273438 33.347656 31.488281 32.40625 31.96875 31.742188 L 32.429688 31.078125 L 31.617188 30.121094 C 31.167969 29.589844 30.785156 29.167969 30.753906 29.167969 C 30.738281 29.167969 30.671875 29.296875 30.625 29.441406 Z M 30.625 29.441406 "/>
</g>
</svg>
