<?xml version="1.0" standalone="no"?>
<!DOCTYPE svg PUBLIC "-//W3C//DTD SVG 20010904//EN"
 "http://www.w3.org/TR/2001/REC-SVG-20010904/DTD/svg10.dtd">
<svg version="1.0" xmlns="http://www.w3.org/2000/svg"
 width="244.000000pt" height="216.000000pt" viewBox="0 0 244.000000 216.000000"
 preserveAspectRatio="xMidYMid meet">
<metadata>
Created by potrace 1.16, written by Peter Selinger 2001-2019
</metadata>
<g transform="translate(0.000000,216.000000) scale(0.100000,-0.100000)"
fill="#000000" stroke="none">
<path d="M905 2009 c-49 -4 -130 -15 -180 -25 -80 -15 -94 -21 -123 -53 -53
-57 -125 -201 -109 -217 2 -2 58 9 123 25 237 58 302 65 539 65 241 0 312 -8
548 -68 94 -24 127 -29 127 -20 0 29 -44 122 -86 181 -47 66 -51 68 -174 92
-146 29 -462 38 -665 20z"/>
<path d="M460 1936 c-85 -30 -116 -47 -168 -91 -77 -67 -105 -157 -81 -267 8
-38 47 -129 101 -237 83 -165 118 -255 133 -342 l5 -37 63 20 c34 10 72 16 84
13 22 -5 23 -2 23 48 0 89 -26 164 -121 352 -76 151 -91 190 -96 241 -7 81 15
155 73 241 56 84 56 83 52 83 -2 0 -32 -11 -68 -24z"/>
<path d="M1794 1952 c2 -4 25 -38 50 -75 58 -86 80 -160 73 -241 -5 -50 -21
-91 -101 -251 -96 -191 -116 -252 -116 -345 0 -49 0 -49 28 -44 16 3 53 -3 85
-14 l57 -19 6 36 c14 87 49 178 132 343 96 189 120 269 107 350 -16 94 -79
167 -190 218 -63 29 -138 53 -131 42z"/>
<path d="M1083 1336 c-23 -13 -61 -39 -84 -58 -46 -37 -173 -185 -233 -272
l-39 -57 36 -30 c44 -36 116 -145 146 -221 13 -31 29 -89 36 -130 7 -40 14
-67 14 -60 1 18 17 15 73 -17 l51 -29 -54 -31 c-30 -17 -59 -29 -65 -27 -7 3
-13 -16 -17 -49 -3 -29 -17 -78 -32 -109 -15 -32 -25 -59 -24 -60 20 -17 145
-40 242 -44 97 -4 133 -1 213 18 63 14 94 26 90 33 -35 81 -56 136 -56 152 0
32 -12 65 -20 60 -8 -5 -96 41 -105 54 -4 8 91 65 109 66 5 0 15 27 22 60 27
131 92 256 173 328 l42 38 -63 87 c-34 48 -105 131 -158 184 -136 138 -207
165 -297 114z"/>
<path d="M517 896 l-28 -12 46 -33 c24 -17 65 -61 90 -96 108 -150 149 -353
107 -516 l-18 -67 26 10 c48 18 90 69 110 136 75 241 -89 596 -272 591 -18 0
-45 -6 -61 -13z"/>
<path d="M1672 889 c-83 -41 -164 -163 -198 -298 -11 -45 -15 -94 -12 -161 5
-122 39 -202 103 -237 22 -12 41 -21 42 -19 2 2 -3 29 -12 62 -50 194 20 442
166 586 l67 67 -30 10 c-46 16 -78 13 -126 -10z"/>
<path d="M295 799 c-28 -22 -75 -110 -75 -140 0 -9 32 -36 75 -62 75 -46 75
-47 75 -21 0 38 -32 228 -40 237 -3 4 -19 -2 -35 -14z"/>
<path d="M424 794 c3 -16 13 -72 21 -124 9 -52 19 -97 22 -100 5 -5 102 100
103 112 1 18 -70 93 -109 116 l-43 25 6 -29z"/>
<path d="M1853 791 c-23 -16 -53 -46 -68 -66 -25 -32 -27 -38 -15 -60 14 -27
88 -101 93 -94 8 9 43 249 37 249 -4 0 -25 -13 -47 -29z"/>
<path d="M1973 693 c-11 -71 -19 -131 -16 -135 3 -6 128 67 152 88 1 1 -5 26
-14 54 -16 48 -71 120 -92 120 -6 0 -19 -57 -30 -127z"/>
<path d="M565 542 c-28 -31 -49 -64 -47 -72 1 -8 34 -34 73 -57 l69 -43 0 38
c0 38 -25 155 -38 177 -5 10 -22 -3 -57 -43z"/>
<path d="M1701 572 c-16 -41 -30 -113 -31 -156 0 -44 2 -44 85 9 30 19 55 42
55 50 0 8 -22 39 -49 69 l-49 54 -11 -26z"/>
<path d="M214 491 c8 -69 33 -161 44 -160 16 2 101 110 96 121 -3 7 -37 32
-76 56 l-71 43 7 -60z"/>
<path d="M2042 503 c-39 -25 -72 -50 -72 -55 0 -11 91 -118 100 -118 13 0 58
205 48 216 -2 1 -36 -18 -76 -43z"/>
<path d="M500 352 c1 -29 36 -242 42 -247 19 -20 108 108 108 156 0 9 -32 36
-75 62 -60 37 -75 43 -75 29z"/>
<path d="M351 303 c-28 -32 -51 -62 -51 -66 0 -5 27 -35 59 -68 66 -65 96 -77
87 -32 -3 16 -13 71 -21 123 -9 52 -18 96 -20 98 -1 2 -26 -23 -54 -55z"/>
<path d="M1743 318 c-70 -45 -74 -57 -44 -123 16 -35 78 -102 87 -93 1 2 10
46 18 98 9 52 19 110 22 128 7 42 -5 41 -83 -10z"/>
<path d="M1916 343 c-12 -43 -37 -225 -32 -230 10 -11 86 47 116 88 l29 41
-51 59 c-28 33 -52 59 -54 59 -1 0 -5 -8 -8 -17z"/>
</g>
</svg>
